<svg width="800" height="600" viewBox="0 0 800 600" fill="none" xmlns="http://www.w3.org/2000/svg">
  <rect width="800" height="600" rx="36" fill="#f8fafc"/>
  <rect width="800" height="600" rx="36" fill="#f27d26" opacity="0.01"/>

  <!-- Modern Consultation Concept Illustration -->
  <g transform="translate(150, 80)">
    <circle cx="250" cy="220" r="180" fill="#f27d26" opacity="0.04" filter="blur(30px)"/>
    
    <!-- Base Shapes -->
    <rect x="50" y="80" width="400" height="300" rx="20" fill="white" filter="drop-shadow(0 20px 25px rgba(0,0,0,0.05))"/>
    
    <!-- Checklist items inside screen -->
    <g transform="translate(90, 130)">
      <!-- Item 1 -->
      <circle cx="20" cy="20" r="15" fill="#f27d26" opacity="0.2"/>
      <path d="M14 20L18 24L26 16" stroke="#f27d26" stroke-width="3" stroke-linecap="round" stroke-linejoin="round"/>
      <rect x="50" y="12" width="220" height="16" rx="8" fill="#1e293b"/>
      
      <!-- Item 2 -->
      <g transform="translate(0, 60)">
        <circle cx="20" cy="20" r="15" fill="#0f172a" opacity="0.1"/>
        <path d="M14 20L18 24L26 16" stroke="#0f172a" stroke-width="3" stroke-linecap="round" stroke-linejoin="round"/>
        <rect x="50" y="12" width="180" height="16" rx="8" fill="#64748b"/>
      </g>

      <!-- Item 3 -->
      <g transform="translate(0, 120)">
        <circle cx="20" cy="20" r="15" fill="#0f172a" opacity="0.1"/>
        <path d="M14 20L18 24L26 16" stroke="#0f172a" stroke-width="3" stroke-linecap="round" stroke-linejoin="round"/>
        <rect x="50" y="12" width="140" height="16" rx="8" fill="#64748b"/>
      </g>
    </g>
  </g>
</svg>
